<?xml version="1.0" standalone="no"?>
<!DOCTYPE svg PUBLIC "-//W3C//DTD SVG 20010904//EN"
 "http://www.w3.org/TR/2001/REC-SVG-20010904/DTD/svg10.dtd">
<svg version="1.0" xmlns="http://www.w3.org/2000/svg"
 width="400.000000pt" height="260.000000pt" viewBox="0 0 400.000000 260.000000"
 preserveAspectRatio="xMidYMid meet">

<g transform="translate(0.000000,260.000000) scale(0.100000,-0.100000)"
fill="#000000" stroke="none">
<path d="M1600 2396 c0 -2 8 -10 18 -17 15 -13 16 -12 3 4 -13 16 -21 21 -21
13z"/>
<path d="M1154 2349 c-26 -27 -29 -38 -33 -110 -2 -44 1 -79 5 -77 5 1 21 -6
37 -16 19 -13 38 -17 63 -13 51 8 117 43 133 69 11 18 6 15 -23 -10 -107 -94
-251 34 -171 152 30 44 28 45 -11 5z"/>
<path d="M1184 2346 c-26 -26 -34 -42 -34 -71 0 -52 53 -105 105 -105 52 0
105 53 105 105 0 52 -53 105 -105 105 -29 0 -45 -8 -71 -34z"/>
<path d="M2014 2259 c-17 -5 -38 -17 -45 -26 -12 -14 -12 -16 0 -8 9 5 12 4 7
-3 -4 -6 -13 -9 -20 -6 -9 3 -21 -11 -35 -39 -18 -36 -21 -62 -21 -160 0 -129
11 -171 57 -220 37 -38 79 -47 213 -47 150 0 215 27 225 92 2 13 9 43 15 68
19 70 6 242 -20 285 -36 58 -87 75 -226 74 -65 0 -133 -5 -150 -10z m323 -29
c53 -32 63 -63 63 -205 0 -128 -8 -164 -44 -194 -9 -7 -13 -17 -10 -22 3 -5
-3 -6 -12 -2 -11 4 -15 3 -10 -5 10 -17 -49 -24 -180 -20 -107 3 -123 6 -153
27 -51 37 -61 72 -61 221 0 77 4 130 10 130 5 0 7 6 4 14 -3 8 0 17 7 22 8 5
10 3 4 -7 -4 -8 7 0 26 17 19 17 41 34 49 37 8 3 74 6 145 6 112 1 134 -2 162
-19z m53 -394 c0 -2 -8 -10 -17 -17 -16 -13 -17 -12 -4 4 13 16 21 21 21 13z"/>
<path d="M2053 2212 c-31 -5 -73 -58 -73 -92 0 -34 41 -85 74 -94 53 -13 116
36 116 90 0 60 -56 105 -117 96z"/>
<path d="M2205 1998 c-15 -14 -28 -38 -32 -60 -5 -33 -2 -41 31 -74 33 -33 41
-36 74 -31 49 8 82 46 82 96 0 78 -95 120 -155 69z"/>
<path d="M2050 1910 c0 -5 5 -10 10 -10 6 0 10 5 10 10 0 6 -4 10 -10 10 -5 0
-10 -4 -10 -10z"/>
<path d="M1433 2218 c-33 -36 -51 -80 -53 -128 -3 -67 -3 -67 43 -89 36 -17
52 -20 89 -13 51 10 102 42 120 75 9 17 3 15 -26 -10 -20 -18 -47 -33 -59 -32
-14 0 -16 2 -7 6 57 18 90 56 90 103 0 34 -28 79 -61 96 -43 22 -91 11 -123
-27 -47 -56 -29 -136 38 -165 20 -9 25 -13 12 -14 -10 0 -33 15 -52 34 -43 43
-46 95 -9 150 28 41 27 46 -2 14z"/>
<path d="M1880 2203 c-20 -40 -27 -498 -20 -1303 l5 -665 27 -45 c15 -25 40
-54 57 -65 26 -17 28 -21 13 -27 -9 -4 181 -6 423 -5 400 2 443 4 473 20 42
23 41 30 -3 11 -28 -11 -103 -14 -399 -14 -216 0 -385 4 -414 10 -27 6 -65 24
-85 41 -70 58 -68 19 -65 1103 2 531 3 966 2 966 0 0 -7 -12 -14 -27z"/>
<path d="M1172 2080 c-58 -54 -64 -122 -16 -179 23 -28 76 -51 114 -51 8 0 33
16 55 36 22 20 27 26 11 15 -35 -26 -89 -36 -113 -22 -15 9 -12 10 13 5 62
-12 124 42 124 107 0 82 -95 129 -166 83 -23 -15 -40 -50 -47 -94 -3 -18 -5
-14 -6 12 -1 29 6 46 30 73 34 39 35 46 1 15z m8 -165 l25 -30 -27 24 c-16 14
-28 29 -28 34 0 6 1 8 3 6 1 -2 13 -17 27 -34z"/>
<path d="M1484 1955 c-15 -23 -15 -27 0 -50 10 -15 26 -25 41 -25 15 0 31 10
41 25 15 23 15 27 0 50 -10 15 -26 25 -41 25 -15 0 -31 -10 -41 -25z"/>
<path d="M1124 1891 c15 -25 64 -61 81 -61 6 0 -5 9 -24 21 -19 11 -43 30 -53
42 l-20 22 16 -24z"/>
<path d="M2003 1620 c-72 -43 -68 -6 -68 -680 0 -587 1 -606 20 -638 11 -18
36 -43 55 -55 34 -22 42 -22 405 -22 l370 0 38 23 c75 48 72 14 72 697 0 589
-1 611 -20 639 -36 54 -50 56 -462 56 -357 0 -380 -1 -410 -20z m837 -160 c12
0 12 -361 0 -380 -5 -8 -12 -11 -17 -7 -4 5 -3 11 3 15 13 9 16 55 4 47 -6 -4
-7 2 -3 11 4 11 2 15 -4 11 -12 -7 -25 28 -14 38 9 10 8 29 -4 38 -7 6 -6 10
3 14 10 4 10 8 2 18 -8 10 -8 19 0 34 6 12 7 21 3 21 -5 0 -8 34 -8 75 0 58 3
74 13 70 8 -3 18 -5 22 -5z m-10 -421 c0 -11 -4 -18 -10 -14 -5 3 -7 12 -3 20
7 21 13 19 13 -6z"/>
</g>
</svg>
