<?xml version="1.0" standalone="no"?>
<!DOCTYPE svg PUBLIC "-//W3C//DTD SVG 20010904//EN"
 "http://www.w3.org/TR/2001/REC-SVG-20010904/DTD/svg10.dtd">
<svg version="1.0" xmlns="http://www.w3.org/2000/svg"
 width="400.000000pt" height="260.000000pt" viewBox="0 0 400.000000 260.000000"
 preserveAspectRatio="xMidYMid meet">

<g transform="translate(0.000000,260.000000) scale(0.100000,-0.100000)"
fill="#000000" stroke="none">
<path d="M2700 1172 c-128 -59 -211 -101 -228 -115 -10 -8 -9 -14 4 -28 15
-17 15 -20 -10 -49 -40 -48 -37 -111 8 -156 l33 -33 -18 -38 c-37 -80 -83
-112 -129 -93 -28 12 -85 9 -143 -5 -23 -6 -33 -2 -61 28 -18 19 -43 56 -55
82 l-22 46 -79 -62 c-44 -34 -118 -95 -165 -136 l-85 -75 45 -56 c85 -108 212
-187 358 -222 104 -25 170 -25 274 0 262 63 447 259 494 524 20 116 -2 259
-59 374 -16 31 -35 58 -43 59 -8 2 -61 -19 -119 -45z"/>
</g>
</svg>
