<?xml version="1.0" standalone="no"?>
<!DOCTYPE svg PUBLIC "-//W3C//DTD SVG 20010904//EN"
 "http://www.w3.org/TR/2001/REC-SVG-20010904/DTD/svg10.dtd">
<svg version="1.0" xmlns="http://www.w3.org/2000/svg"
 width="400.000000pt" height="260.000000pt" viewBox="0 0 400.000000 260.000000"
 preserveAspectRatio="xMidYMid meet">

<g transform="translate(0.000000,260.000000) scale(0.100000,-0.100000)"
fill="#000000" stroke="none">
<path d="M2378 2393 c6 -2 18 -2 25 0 6 3 1 5 -13 5 -14 0 -19 -2 -12 -5z"/>
<path d="M2275 2256 c-56 -26 -119 -90 -143 -145 -8 -20 -15 -65 -16 -103 -1
-287 388 -380 522 -124 34 66 37 168 6 236 -62 136 -234 200 -369 136z"/>
<path d="M1301 1709 c-107 -21 -195 -88 -243 -187 l-33 -67 -3 -529 c-3 -516
-2 -531 18 -600 19 -60 30 -78 84 -132 53 -52 73 -65 130 -83 65 -20 90 -21
490 -21 418 0 421 0 390 19 -17 11 -36 34 -43 52 -8 23 -11 253 -11 795 l0
764 -367 -1 c-203 -1 -388 -5 -412 -10z"/>
<path d="M2184 1676 c-28 -28 -34 -42 -34 -76 0 -34 6 -48 34 -76 40 -40 83
-45 132 -15 93 57 47 201 -64 201 -25 0 -43 -9 -68 -34z m76 -61 c-10 -12 -10
-18 1 -32 12 -17 12 -17 -6 -1 -15 14 -16 20 -5 32 7 9 15 16 17 16 3 0 0 -7
-7 -15z"/>
<path d="M2468 1693 c-94 -58 -51 -203 59 -203 45 0 90 34 104 78 28 96 -78
178 -163 125z m69 -119 c-3 -3 -12 -4 -19 -1 -8 3 -5 6 6 6 11 1 17 -2 13 -5z"/>
<path d="M2214 1436 c-43 -19 -64 -53 -64 -102 0 -78 73 -130 142 -101 51 22
73 52 73 103 0 77 -81 131 -151 100z"/>
<path d="M2480 1433 c-55 -28 -60 -48 -60 -237 l0 -168 34 -34 c26 -26 42 -34
71 -34 29 0 45 8 71 34 l34 34 0 165 c0 91 -4 177 -10 191 -19 52 -87 75 -140
49z m56 -109 c-7 -7 -14 -8 -22 0 -7 7 -8 14 0 22 7 7 14 8 22 0 7 -7 8 -14 0
-22z"/>
<path d="M2205 1168 c-37 -20 -55 -52 -55 -96 0 -37 6 -50 34 -78 25 -25 43
-34 68 -34 109 0 156 133 70 200 -27 22 -85 26 -117 8z"/>
</g>
</svg>
