<?xml version="1.0" standalone="no"?>
<!DOCTYPE svg PUBLIC "-//W3C//DTD SVG 20010904//EN"
 "http://www.w3.org/TR/2001/REC-SVG-20010904/DTD/svg10.dtd">
<svg version="1.0" xmlns="http://www.w3.org/2000/svg"
 width="400.000000pt" height="260.000000pt" viewBox="0 0 400.000000 260.000000"
 preserveAspectRatio="xMidYMid meet">

<g transform="translate(0.000000,260.000000) scale(0.100000,-0.100000)"
fill="#000000" stroke="none">
<path d="M1795 2362 c-3 -3 -5 -15 -6 -26 -1 -19 -2 -19 -8 3 -6 23 -7 23 -21
5 -13 -16 -13 -17 0 -9 8 4 12 4 7 0 -10 -12 -39 -16 -32 -5 3 5 1 11 -4 14
-5 4 -12 -2 -14 -11 -3 -13 -5 -11 -7 7 -1 23 -2 23 -9 5 -11 -27 -54 -27 -63
0 -6 19 -6 19 -7 -2 -1 -13 -5 -23 -11 -23 -5 0 -7 8 -4 18 5 16 5 16 -6 -1
-6 -9 -18 -50 -26 -89 -8 -40 -20 -78 -25 -85 -11 -12 -3 -36 9 -30 4 2 15 -4
25 -15 13 -14 14 -18 3 -18 -8 0 -17 -4 -20 -9 -3 -4 20 -2 52 6 87 22 655 22
737 0 32 -9 61 -14 64 -11 3 3 -4 7 -16 10 -20 5 -20 7 -5 23 10 10 20 16 24
14 15 -8 19 20 4 36 -9 10 -16 34 -16 53 0 48 -27 111 -43 101 -9 -5 -9 -3 1
9 10 13 10 17 -3 22 -8 3 -15 0 -16 -7 0 -7 -4 -3 -9 8 -5 11 -9 15 -9 8 -1
-6 -16 -15 -33 -18 -18 -4 -36 -13 -40 -19 -6 -8 -8 -7 -8 2 0 6 -7 12 -16 12
-11 0 -14 5 -9 18 5 14 4 15 -7 4 -11 -11 -10 -16 6 -27 18 -13 18 -14 -2 -12
-11 0 -20 4 -20 7 2 20 -7 25 -42 25 -22 0 -40 -4 -40 -10 0 -5 -5 -3 -10 5
-8 12 -10 10 -10 -10 0 -19 -3 -21 -9 -11 -5 8 -7 21 -4 30 3 12 2 12 -7 -1
-12 -20 -40 -24 -40 -7 0 6 -8 3 -17 -7 -11 -11 -18 -13 -21 -5 -2 6 -10 11
-18 11 -9 0 -13 5 -9 13 4 6 0 4 -8 -6 -11 -14 -16 -15 -20 -5 -3 7 -6 2 -7
-12 -1 -14 -4 -19 -7 -12 -2 6 -10 9 -16 5 -16 -10 -38 -13 -33 -4 3 4 1 13
-5 21 -7 12 -9 9 -10 -10 0 -16 -3 -19 -6 -10 -8 20 -33 44 -33 31 0 -5 5 -13
10 -16 6 -3 10 -12 9 -18 0 -8 -2 -8 -6 1 -3 9 -9 10 -18 2 -9 -8 -12 -5 -10
13 3 22 -16 33 -30 19z"/>
<path d="M1656 2341 c9 -9 34 -9 34 -1 0 5 -9 8 -20 7 -10 -1 -17 -3 -14 -6z"/>
<path d="M1905 2340 c3 -5 8 -10 11 -10 2 0 4 5 4 10 0 6 -5 10 -11 10 -5 0
-7 -4 -4 -10z"/>
<path d="M1719 2020 c-85 -10 -146 -37 -203 -90 -62 -58 -94 -127 -106 -231
-5 -46 -10 -221 -10 -389 0 -353 9 -452 45 -526 37 -76 111 -139 193 -165 56
-17 102 -22 277 -26 257 -6 404 6 477 40 99 45 152 106 185 213 16 53 18 100
17 459 0 339 -3 409 -17 462 -32 119 -105 198 -217 235 -58 18 -93 21 -320 24
-140 1 -285 -1 -321 -6z m62 -160 c10 -6 19 -16 19 -23 0 -7 -3 -8 -8 -2 -4 6
-26 12 -49 13 -37 3 -47 -1 -74 -28 -29 -28 -31 -35 -25 -76 6 -45 -7 -62 -18
-21 -13 50 -6 79 28 113 36 36 86 45 127 24z m54 -80 l6 -35 -19 35 c-10 19
-17 39 -14 43 7 15 21 -7 27 -43z m119 29 c-3 -5 -10 -7 -15 -3 -5 3 -7 10 -3
15 3 5 10 7 15 3 5 -3 7 -10 3 -15z m111 12 c3 -5 1 -12 -5 -16 -5 -3 -10 1
-10 9 0 18 6 21 15 7z m-55 -31 c0 -13 7 -20 20 -20 11 0 20 -4 20 -10 0 -5
-9 -10 -20 -10 -13 0 -20 -7 -20 -20 0 -11 -4 -20 -10 -20 -5 0 -10 9 -10 20
0 11 -7 20 -15 20 -8 0 -15 5 -15 10 0 6 7 10 15 10 8 0 15 9 15 20 0 11 5 20
10 20 6 0 10 -9 10 -20z m-291 -26 c-6 -7 -8 -18 -4 -24 3 -6 -3 -10 -15 -10
-20 0 -20 1 -3 27 17 26 17 27 0 20 -9 -3 -17 -2 -17 2 0 14 24 19 38 8 9 -7
9 -13 1 -23z m61 17 c0 -4 -6 -13 -12 -19 -10 -10 -10 -15 2 -22 12 -8 10 -10
-7 -10 -27 0 -29 7 -6 32 15 17 15 18 -1 18 -9 0 -15 4 -11 10 6 10 35 3 35
-9z m488 -1 c-7 -10 -14 -17 -17 -15 -4 4 18 35 25 35 2 0 -1 -9 -8 -20z
m-313 -81 c-10 -15 -25 -10 -19 6 4 8 10 12 15 9 5 -3 7 -10 4 -15z m110 11
c3 -5 1 -10 -4 -10 -6 0 -11 5 -11 10 0 6 2 10 4 10 3 0 8 -4 11 -10z m-375
-196 c0 -43 -4 -74 -10 -74 -6 0 -10 29 -10 66 l0 67 -35 -6 c-41 -7 -48 10
-7 19 15 3 32 7 37 9 21 5 25 -8 25 -81z m168 75 c59 -20 66 -108 11 -136 -61
-32 -139 1 -139 58 0 72 53 104 128 78z m313 -15 c19 -17 26 -78 11 -100 -11
-18 -49 -34 -77 -34 -28 0 -66 16 -77 34 -4 6 -8 27 -8 47 0 35 17 59 50 72
24 10 81 -1 101 -19z m183 16 c36 -13 50 -44 34 -74 -19 -34 -75 -78 -95 -74
-13 2 -9 8 17 25 l35 23 -42 0 c-67 0 -105 48 -65 82 32 28 73 35 116 18z
m-382 -35 c0 -5 -5 -11 -11 -13 -6 -2 -11 4 -11 13 0 9 5 15 11 13 6 -2 11 -8
11 -13z m0 -70 c0 -5 -5 -11 -11 -13 -6 -2 -11 4 -11 13 0 9 5 15 11 13 6 -2
11 -8 11 -13z m-136 -134 c-9 -14 -33 -14 -41 -1 -4 6 -1 18 6 26 11 13 14 13
27 0 8 -8 11 -19 8 -25z m-54 7 c-4 -15 -7 -17 -13 -6 -7 10 -9 11 -9 0 0 -7
-4 -11 -10 -7 -14 9 -2 31 19 32 14 1 17 -3 13 -19z m-254 -45 c-10 -2 -26 -2
-35 0 -10 3 -2 5 17 5 19 0 27 -2 18 -5z m980 0 c-10 -2 -26 -2 -35 0 -10 3
-2 5 17 5 19 0 27 -2 18 -5z m-708 -143 c0 -11 -4 -20 -8 -20 -4 0 -8 9 -8 20
0 11 4 20 8 20 4 0 8 -9 8 -20z m-55 -70 c-3 -5 -12 -10 -18 -10 -7 0 -6 4 3
10 19 12 23 12 15 0z m550 -120 c17 -7 14 -9 -15 -10 -19 -2 -38 -2 -42 -1 -5
0 -8 -4 -8 -11 0 -6 -3 -8 -7 -5 -10 10 -43 -50 -43 -79 0 -13 7 -36 16 -49
20 -31 1 -33 -20 -3 -35 50 -12 122 49 149 45 21 43 21 70 9z m-511 -41 c20
-16 26 -29 26 -59 0 -51 -30 -80 -81 -80 -71 0 -105 85 -54 135 30 31 73 32
109 4z m228 -34 c0 -5 -5 -11 -11 -13 -6 -2 -11 4 -11 13 0 9 5 15 11 13 6 -2
11 -8 11 -13z m262 0 c-17 -13 -17 -14 -2 -15 25 0 33 -20 14 -38 -12 -13 -18
-13 -28 -4 -9 9 -8 12 5 12 9 0 17 5 17 10 0 6 -7 10 -15 10 -8 0 -15 9 -15
20 0 14 7 20 22 20 21 0 21 0 2 -15z m-324 -67 c0 -19 -2 -20 -10 -8 -13 19
-13 30 0 30 6 0 10 -10 10 -22z m33 16 c3 -3 3 -13 0 -21 -5 -12 -7 -12 -14
-1 -15 23 -4 40 14 22z m85 -9 c-2 -6 -11 -9 -20 -8 -10 2 -18 -2 -18 -7 0 -6
-5 -10 -11 -10 -8 0 -8 4 0 14 9 11 9 15 -1 19 -7 2 2 4 20 3 18 -1 31 -6 30
-11z m216 -40 c-7 -16 -24 -21 -24 -6 0 8 7 13 27 20 1 1 0 -6 -3 -14z"/>
<path d="M1783 1570 c-12 -5 -25 -20 -29 -34 -13 -52 38 -89 95 -70 20 7 27
17 29 45 2 21 -3 40 -10 47 -20 16 -61 22 -85 12z"/>
<path d="M2070 1567 c-35 -18 -40 -69 -8 -91 46 -32 108 -7 108 43 0 47 -53
72 -100 48z"/>
<path d="M2273 1570 c-26 -11 -31 -45 -7 -54 9 -3 28 -6 44 -6 16 0 35 3 44 6
25 10 19 43 -10 54 -30 12 -42 12 -71 0z"/>
<path d="M1811 1364 c0 -11 3 -14 6 -6 3 7 2 16 -1 19 -3 4 -6 -2 -5 -13z"/>
<path d="M1691 921 c-40 -40 -15 -101 40 -101 30 0 43 9 59 39 10 20 9 27 -7
50 -26 33 -65 39 -92 12z m87 -36 c2 -9 -1 -22 -7 -28 -8 -8 -11 -4 -11 15 0
18 -7 29 -20 33 -11 4 -18 11 -14 16 8 14 48 -14 52 -36z"/>
<path d="M2536 1959 c5 -8 9 -16 9 -19 1 -15 54 -80 59 -72 6 10 -43 84 -65
98 -9 5 -9 3 -3 -7z"/>
<path d="M850 1869 c-128 -33 -348 -109 -375 -131 -27 -21 -52 -63 -67 -112
-13 -47 -20 -690 -8 -777 22 -153 49 -169 290 -169 186 0 241 9 278 43 51 47
50 39 48 569 0 273 2 491 6 485 14 -22 9 13 -6 41 -34 66 -67 76 -166 51z m35
-90 c4 -5 -1 -19 -10 -29 -16 -18 -16 -19 3 -17 11 0 19 4 16 8 -7 12 13 20
31 13 16 -7 17 -27 1 -24 -5 1 -13 -5 -18 -14 -5 -9 -14 -13 -21 -9 -7 4 -18
8 -25 9 -24 4 -26 13 -7 34 11 12 13 20 6 20 -7 0 -9 5 -6 10 8 13 22 13 30
-1z m-37 -73 c34 -17 112 -92 112 -107 0 -5 11 3 25 18 l24 28 1 -236 c0 -130
-3 -264 -7 -299 -6 -61 -6 -62 -20 -36 -8 15 -18 24 -23 21 -12 -8 -12 -8 0
35 14 48 23 173 13 185 -4 6 -26 23 -48 38 -86 59 -83 50 -35 109 l42 53 -46
-50 c-34 -37 -45 -55 -40 -70 16 -50 16 -162 0 -199 l-16 -38 -31 26 c-17 14
-36 23 -41 20 -7 -5 -9 0 -6 14 4 13 -1 29 -12 42 -20 23 -30 26 -30 6 0 -7
-7 -19 -15 -26 -12 -10 -15 -32 -13 -99 2 -47 2 -161 1 -253 l-3 -168 -80 0
c-98 0 -142 17 -167 62 -17 30 -18 65 -18 428 0 380 1 397 21 434 30 58 45 58
39 -1 -3 -32 -2 -38 3 -18 8 34 20 38 36 12 9 -14 8 -21 -5 -30 -9 -7 -24 -28
-33 -47 l-17 -35 22 30 c41 55 126 135 142 135 28 0 20 -14 -37 -63 -29 -25
-65 -66 -80 -91 -32 -55 -34 -69 -4 -30 27 34 43 50 83 84 29 24 29 24 10 1
l-20 -23 33 -27 c37 -32 40 -44 11 -65 -11 -8 -28 -25 -36 -38 -12 -17 -8 -16
18 8 55 51 98 65 143 48 37 -14 10 -144 -29 -144 -8 0 -13 -9 -12 -20 1 -11 2
-20 2 -20 1 0 44 52 96 116 52 64 103 120 113 123 21 8 30 51 12 51 -6 0 -16
8 -22 18 -15 23 -105 71 -138 74 -18 2 -26 8 -26 21 0 16 6 18 40 13 22 -3 52
-12 68 -20z m109 -687 c13 -13 -6 -59 -24 -59 -6 0 -13 -6 -16 -12 -2 -7 -8
-9 -13 -5 -5 4 -2 12 5 16 7 5 10 14 7 20 -4 6 -1 14 8 17 8 3 12 12 9 20 -6
17 8 19 24 3z m-52 -89 c4 -6 1 -17 -5 -26 -10 -11 -16 -12 -26 -3 -11 9 -11
15 -3 25 14 17 25 18 34 4z m-35 -50 c0 -5 -4 -10 -10 -10 -5 0 -10 5 -10 10
0 6 5 10 10 10 6 0 10 -4 10 -10z m72 -7 c10 -9 18 -27 18 -40 0 -22 -31 -63
-48 -63 -16 0 -44 38 -40 55 3 18 23 21 23 3 0 -6 6 -13 13 -15 13 -5 17 19 5
31 -12 12 -13 46 -1 46 6 0 20 -7 30 -17z m-97 -14 c0 -8 -9 -14 -22 -13 -14
1 -20 -3 -16 -12 3 -8 1 -14 -5 -14 -9 0 -26 30 -20 35 34 25 63 27 63 4z m13
-166 c-10 -2 -28 -2 -40 0 -13 2 -5 4 17 4 22 1 32 -1 23 -4z"/>
<path d="M849 1463 c-120 -149 -131 -163 -126 -163 9 0 189 221 185 226 -3 2
-29 -26 -59 -63z"/>
<path d="M545 1379 c-4 -6 -5 -12 -2 -15 2 -3 7 2 10 11 7 17 1 20 -8 4z"/>
<path d="M640 1326 c0 -2 8 -10 18 -17 15 -13 16 -12 3 4 -13 16 -21 21 -21
13z"/>
<path d="M680 1290 c-13 -8 -12 -10 3 -10 9 0 17 5 17 10 0 12 -1 12 -20 0z"/>
<path d="M3041 1853 l-30 -30 0 -507 c0 -278 4 -504 9 -501 4 3 6 -4 3 -14 -3
-13 7 -32 29 -55 43 -46 82 -53 306 -55 194 -2 223 5 257 62 19 30 20 56 23
434 2 259 -1 416 -7 441 -16 56 -51 104 -92 124 -61 29 -357 118 -414 124 -51
6 -56 5 -84 -23z m312 -104 c94 -27 182 -56 197 -64 15 -8 36 -31 46 -52 17
-35 19 -69 22 -390 3 -366 -1 -411 -38 -451 -17 -18 -32 -22 -85 -22 -64 0
-65 0 -66 28 l-2 27 -4 -27 c-4 -26 -8 -28 -49 -28 l-44 0 -1 38 -1 37 -10
-32 -11 -33 -72 0 c-58 0 -77 4 -99 21 -60 48 -61 49 -64 459 -2 206 -1 399 3
428 8 63 44 112 82 112 14 0 102 -23 196 -51z"/>
<path d="M3362 1600 c0 -14 2 -19 5 -12 2 6 2 18 0 25 -3 6 -5 1 -5 -13z"/>
<path d="M3140 1482 c0 -12 19 -26 26 -19 2 2 -2 10 -11 17 -9 8 -15 8 -15 2z"/>
<path d="M3370 1460 c-13 -8 -12 -10 3 -10 9 0 17 5 17 10 0 12 -1 12 -20 0z"/>
<path d="M3428 1463 c7 -3 16 -2 19 1 4 3 -2 6 -13 5 -11 0 -14 -3 -6 -6z"/>
<path d="M3445 1411 c-11 -5 -23 -7 -27 -4 -4 2 -5 -3 -2 -11 8 -20 10 -20 36
4 24 22 23 23 -7 11z"/>
<path d="M3380 1402 c0 -5 7 -15 15 -22 8 -7 15 -8 15 -2 0 5 -7 15 -15 22 -8
7 -15 8 -15 2z"/>
<path d="M3483 1391 c-31 -26 -48 -71 -27 -71 11 0 13 6 9 20 -5 16 -3 19 11
13 12 -4 15 -3 10 6 -5 7 0 21 10 32 22 24 16 24 -13 0z"/>
<path d="M3513 1377 c-18 -22 -18 -22 2 -6 11 9 26 14 33 12 17 -6 15 4 -2 10
-8 3 -22 -4 -33 -16z"/>
<path d="M3270 1386 c0 -2 8 -10 18 -17 15 -13 16 -12 3 4 -13 16 -21 21 -21
13z"/>
<path d="M3250 1376 c0 -2 8 -10 18 -17 15 -13 16 -12 3 4 -13 16 -21 21 -21
13z"/>
<path d="M3420 1352 c0 -7 -10 -12 -22 -12 -21 0 -21 0 -2 -14 17 -13 20 -12
27 6 4 12 5 23 2 26 -3 3 -5 0 -5 -6z"/>
<path d="M3315 1330 c10 -11 20 -20 23 -20 3 0 -3 9 -13 20 -10 11 -20 20 -23
20 -3 0 3 -9 13 -20z"/>
<path d="M3295 1320 c10 -11 20 -20 23 -20 3 0 -3 9 -13 20 -10 11 -20 20 -23
20 -3 0 3 -9 13 -20z"/>
<path d="M3361 1304 c0 -11 3 -14 6 -6 3 7 2 16 -1 19 -3 4 -6 -2 -5 -13z"/>
<path d="M3118 1293 c7 -3 16 -2 19 1 4 3 -2 6 -13 5 -11 0 -14 -3 -6 -6z"/>
<path d="M3415 1290 c-3 -5 -24 -8 -45 -6 -39 4 -39 4 -25 -17 8 -12 15 -32
15 -45 l0 -24 -31 26 c-17 14 -37 26 -45 26 -17 0 -64 -44 -64 -60 0 -6 12 2
26 19 14 17 29 31 33 31 5 0 25 -11 45 -25 20 -14 49 -25 64 -25 29 0 63 -23
80 -55 6 -11 12 -14 12 -7 0 23 -57 72 -84 72 -19 0 -26 5 -26 19 0 29 11 51
25 51 7 0 18 7 25 15 7 8 10 15 7 15 -3 0 -9 -4 -12 -10z"/>
<path d="M3318 1173 c6 -2 12 -17 13 -31 l1 -27 7 25 c7 24 -3 40 -24 39 -5 0
-4 -3 3 -6z"/>
<path d="M3211 1154 c0 -11 3 -14 6 -6 3 7 2 16 -1 19 -3 4 -6 -2 -5 -13z"/>
<path d="M3311 1134 c0 -11 3 -14 6 -6 3 7 2 16 -1 19 -3 4 -6 -2 -5 -13z"/>
<path d="M3150 1115 c-8 -9 -8 -15 -2 -15 12 0 26 19 19 26 -2 2 -10 -2 -17
-11z"/>
<path d="M3205 1098 c5 -25 4 -29 -4 -18 -8 11 -11 4 -11 -30 0 -35 3 -42 11
-30 8 11 9 8 5 -16 -4 -23 0 -36 14 -49 17 -16 21 -57 7 -72 -4 -3 -7 -13 -7
-22 0 -11 4 -10 15 6 8 12 12 28 9 37 -7 17 11 22 21 6 3 -5 17 -10 31 -10 14
0 23 4 19 10 -3 5 -12 7 -20 4 -8 -3 -21 0 -29 8 -22 23 5 52 41 44 21 -5 24
-4 13 4 -8 5 -26 10 -39 10 -22 0 -23 3 -19 45 4 28 2 42 -5 38 -5 -3 -7 0 -5
8 4 12 -34 59 -48 59 -3 0 -3 -15 1 -32z m36 -128 c10 0 19 -4 19 -10 0 -5 -6
-10 -13 -10 -16 0 -37 20 -36 35 0 5 3 4 6 -2 2 -7 13 -13 24 -13z"/>
<path d="M3404 1119 c-10 -17 13 -36 27 -22 12 12 4 33 -11 33 -5 0 -12 -5
-16 -11z"/>
<path d="M3475 1027 c-6 -12 -19 -23 -30 -24 -45 -3 -66 -16 -72 -44 -4 -20
-12 -29 -24 -29 -11 0 -19 -5 -19 -11 0 -19 91 -2 112 21 22 24 12 27 -13 4
-22 -20 -52 -11 -47 13 2 11 21 22 50 31 31 8 49 20 53 33 9 28 1 33 -10 6z"/>
<path d="M3320 1026 c0 -2 8 -10 18 -17 15 -13 16 -12 3 4 -13 16 -21 21 -21
13z"/>
<path d="M3470 961 c0 -6 4 -13 10 -16 6 -3 7 1 4 9 -7 18 -14 21 -14 7z"/>
<path d="M3402 855 c6 -14 13 -24 14 -22 6 6 -9 47 -17 47 -5 0 -3 -11 3 -25z"/>
<path d="M3470 871 c0 -5 -8 -12 -17 -14 -14 -4 -12 -5 5 -6 13 -1 22 5 22 14
0 8 -2 15 -5 15 -3 0 -5 -4 -5 -9z"/>
<path d="M3288 859 c-10 -5 -18 -17 -18 -24 0 -16 -21 -16 -32 0 -9 13 -22 -1
-13 -14 11 -19 47 -12 52 9 3 12 19 24 37 29 20 6 24 9 11 10 -11 0 -28 -4
-37 -10z"/>
<path d="M2616 1803 c3 -16 8 -35 11 -43 9 -27 3 -853 -7 -912 -26 -162 -138
-261 -324 -288 -132 -19 -603 -9 -676 14 -137 44 -207 119 -248 269 -14 54
-17 118 -17 495 0 238 -3 423 -7 410 -3 -13 -6 -58 -7 -100 -1 -69 -3 -77 -18
-71 -16 6 -16 5 -3 -8 12 -13 15 -36 11 -120 -10 -263 -16 -484 -13 -489 2 -2
7 1 11 8 4 7 8 -9 9 -37 1 -66 18 -124 54 -194 62 -115 176 -187 329 -207 105
-13 446 -13 559 0 170 19 287 105 350 258 34 82 43 92 76 92 18 0 34 17 34 35
0 2 -16 9 -35 15 -19 6 -36 12 -37 13 -6 5 -12 467 -6 467 4 0 9 -4 12 -9 9
-14 77 -19 72 -5 -2 6 1 17 7 23 9 9 8 14 -3 21 -13 9 -13 11 -1 19 13 8 13
12 1 26 -12 14 -12 18 0 25 12 7 12 11 0 25 -12 14 -12 18 1 25 12 8 11 12 -3
27 -17 16 -18 16 -19 -2 -1 -11 -1 -26 0 -32 1 -7 -9 -13 -22 -13 -20 0 -23 5
-23 35 0 34 1 35 39 35 31 0 37 3 29 13 -6 7 -9 24 -6 38 3 14 2 19 -3 13 -12
-16 -83 -28 -83 -14 0 29 22 50 51 50 41 0 33 24 -10 28 -27 3 -35 11 -53 48
-25 49 -42 58 -32 17z m114 -173 c0 -5 -9 -10 -20 -10 -11 0 -20 5 -20 10 0 6
9 10 20 10 11 0 20 -4 20 -10z m0 -120 c0 -13 -7 -20 -18 -20 -24 0 -32 8 -25
26 8 22 43 17 43 -6z m-2 -52 c-7 -19 -38 -22 -38 -4 0 10 9 16 21 16 12 0 19
-5 17 -12z m-2 -47 c-3 -5 -15 -7 -26 -4 -28 7 -25 13 6 13 14 0 23 -4 20 -9z"/>
<path d="M1119 1677 c-28 -21 -39 -54 -39 -112 0 -51 3 -60 34 -91 33 -33 66
-45 66 -24 0 6 -8 10 -18 10 -36 0 -65 46 -70 108 -4 52 -1 61 23 90 29 34 30
39 4 19z"/>
<path d="M1154 1649 c-26 -29 -25 -99 2 -136 44 -59 94 -34 94 48 0 42 -5 55
-29 80 -35 35 -42 35 -67 8z m70 -21 c19 -27 21 -99 4 -116 -19 -19 -45 -14
-62 10 -16 23 -21 83 -10 112 9 23 50 19 68 -6z"/>
<path d="M1315 1600 c3 -5 8 -10 11 -10 2 0 4 5 4 10 0 6 -5 10 -11 10 -5 0
-7 -4 -4 -10z"/>
<path d="M1112 1570 c0 -14 2 -19 5 -12 2 6 2 18 0 25 -3 6 -5 1 -5 -13z"/>
<path d="M1314 1530 c0 -11 4 -20 8 -20 4 0 8 9 8 20 0 11 -4 20 -8 20 -4 0
-8 -9 -8 -20z"/>
<path d="M1120 1533 c0 -7 10 -22 23 -35 12 -13 17 -17 11 -8 -6 8 -16 24 -22
35 -6 11 -12 15 -12 8z"/>
<path d="M1310 1381 c0 -5 5 -13 10 -16 6 -3 10 -2 10 4 0 5 -4 13 -10 16 -5
3 -10 2 -10 -4z"/>
<path d="M1150 1350 c0 -11 5 -20 10 -20 6 0 10 9 10 20 0 11 -4 20 -10 20 -5
0 -10 -9 -10 -20z"/>
<path d="M1129 1243 c-13 -15 -12 -15 9 -4 23 12 28 21 13 21 -5 0 -15 -7 -22
-17z"/>
<path d="M1120 962 c0 -5 7 -15 15 -22 8 -7 15 -8 15 -2 0 5 -7 15 -15 22 -8
7 -15 8 -15 2z"/>
<path d="M2741 944 c0 -11 3 -14 6 -6 3 7 2 16 -1 19 -3 4 -6 -2 -5 -13z"/>
<path d="M1099 791 c-45 -59 -40 -84 7 -34 22 23 34 45 32 58 -3 18 -8 15 -39
-24z"/>
<path d="M2949 763 c15 -22 31 -33 47 -33 33 0 31 18 -3 26 -16 4 -37 14 -47
23 -17 13 -16 11 3 -16z"/>
<path d="M1460 606 c0 -2 8 -10 18 -17 15 -13 16 -12 3 4 -13 16 -21 21 -21
13z"/>
<path d="M2514 588 l-19 -23 23 19 c21 18 27 26 19 26 -2 0 -12 -10 -23 -22z"/>
<path d="M1563 535 c15 -14 23 -25 17 -25 -6 0 -8 -4 -5 -10 3 -5 -1 -10 -9
-10 -18 0 -21 -21 -6 -36 11 -11 18 -37 25 -94 14 -114 16 -121 33 -119 36 3
63 -1 57 -10 -3 -6 4 -9 15 -8 11 1 20 8 20 16 0 11 4 10 16 -5 8 -10 13 -14
10 -9 -2 6 -1 17 5 25 7 12 9 9 10 -10 0 -23 1 -23 9 -5 6 14 9 15 10 5 0 -12
4 -10 17 5 12 16 14 16 10 3 -3 -10 -2 -20 3 -23 6 -4 10 2 10 12 0 14 2 15 9
4 7 -11 11 -10 21 5 9 16 11 16 6 2 -3 -10 -1 -20 4 -23 6 -4 10 2 11 12 0 11
3 13 6 5 4 -10 9 -9 20 5 13 16 14 16 9 1 -3 -10 -1 -20 4 -23 6 -4 10 2 11
12 0 11 3 13 6 5 4 -10 9 -9 19 5 12 15 13 15 8 2 -3 -10 0 -20 7 -25 7 -4 10
-3 6 2 -3 6 -2 16 4 24 7 12 9 11 9 -4 0 -20 0 -20 15 0 11 14 14 15 9 3 -3
-10 0 -20 7 -25 7 -4 10 -3 6 2 -3 6 -2 16 4 24 7 12 9 11 9 -4 0 -20 0 -20
15 0 11 14 14 15 9 3 -3 -10 0 -20 7 -25 7 -4 10 -3 6 2 -3 6 -2 16 4 24 7 12
9 11 10 -5 0 -12 3 -15 6 -7 4 10 9 9 20 -5 8 -10 12 -13 9 -8 -2 6 -1 17 5
25 7 12 9 11 9 -4 0 -20 0 -20 15 0 15 19 15 19 9 -1 l-6 -20 18 20 c13 16 16
17 11 3 -3 -10 -2 -20 3 -23 6 -4 10 2 10 12 0 14 2 15 9 4 7 -11 11 -10 21 5
9 16 11 16 6 2 -3 -10 -1 -20 4 -23 6 -4 10 2 10 12 0 15 2 16 10 3 5 -8 10
-11 10 -6 0 5 7 3 15 -4 12 -10 15 -9 15 6 0 17 0 17 13 0 13 -17 15 -18 39
-2 13 9 28 13 31 9 4 -3 7 -1 7 5 0 6 6 9 14 6 11 -4 16 6 20 38 3 24 8 66 12
93 3 28 13 58 22 68 16 18 16 20 0 31 -10 7 -15 16 -11 19 3 4 1 7 -6 7 -7 0
-3 9 10 21 23 19 23 20 3 14 -109 -30 -172 -35 -431 -35 -268 0 -349 7 -438
39 l-30 11 28 -25z m465 -190 c0 -14 -4 -27 -8 -30 -3 -2 -7 11 -7 30 0 19 4
32 7 30 4 -3 8 -16 8 -30z m50 0 c0 -13 -4 -22 -9 -19 -5 3 -8 16 -7 29 3 31
16 23 16 -10z m50 0 c0 -13 -4 -22 -9 -19 -5 3 -8 16 -7 29 3 31 16 23 16 -10z
m47 0 c1 -13 -3 -21 -7 -19 -4 3 -7 16 -6 29 3 30 13 22 13 -10z m46 -2 c-9
-16 -10 -15 -9 9 2 16 6 24 11 19 5 -5 5 -17 -2 -28z m-421 0 c0 -21 -3 -24
-9 -14 -5 8 -7 20 -4 28 8 21 13 15 13 -14z m50 0 c0 -21 -3 -24 -9 -14 -5 8
-7 20 -4 28 8 21 13 15 13 -14z m50 0 c0 -21 -3 -24 -9 -14 -5 8 -7 20 -4 28
8 21 13 15 13 -14z m50 0 c0 -21 -3 -24 -9 -14 -5 8 -7 20 -4 28 8 21 13 15
13 -14z m50 0 c0 -21 -3 -24 -9 -14 -5 8 -7 20 -4 28 8 21 13 15 13 -14z m50
0 c0 -21 -3 -24 -9 -14 -5 8 -7 20 -4 28 8 21 13 15 13 -14z m50 0 c0 -21 -3
-24 -9 -14 -5 8 -7 20 -4 28 8 21 13 15 13 -14z m50 0 c0 -21 -3 -24 -9 -14
-5 8 -7 20 -4 28 8 21 13 15 13 -14z m50 0 c0 -21 -3 -24 -9 -14 -5 8 -7 20
-4 28 8 21 13 15 13 -14z m50 0 c0 -21 -3 -24 -9 -14 -5 8 -7 20 -4 28 8 21
13 15 13 -14z m21 0 c-12 -20 -14 -14 -5 12 4 9 9 14 11 11 3 -2 0 -13 -6 -23z
m32 -4 c-4 -15 -8 -17 -13 -8 -10 15 -1 41 10 34 5 -3 6 -14 3 -26z m-567 12
c11 9 14 8 14 -5 0 -10 -4 -14 -10 -11 -5 3 -10 0 -10 -7 0 -9 -3 -9 -10 2 -5
8 -9 20 -9 25 0 6 3 4 6 -3 4 -10 8 -10 19 -1z m41 -11 c1 -11 -2 -18 -8 -15
-11 7 -12 35 -1 35 4 0 8 -9 9 -20z m50 0 c1 -11 -2 -22 -6 -24 -3 -3 -8 6 -9
20 -1 13 2 24 6 24 4 0 8 -9 9 -20z m50 0 c1 -11 -2 -18 -8 -15 -11 7 -12 35
-1 35 4 0 8 -9 9 -20z m50 0 c1 -11 -2 -18 -8 -15 -11 7 -12 35 -1 35 4 0 8
-9 9 -20z m50 0 c1 -11 -2 -22 -6 -24 -3 -3 -8 6 -9 20 -1 13 2 24 6 24 4 0 8
-9 9 -20z"/>
<path d="M1697 170 c3 -11 9 -23 14 -26 5 -3 6 1 3 9 -3 8 -1 18 5 22 7 3 11
-3 12 -17 1 -23 1 -23 9 2 6 20 8 21 9 6 1 -20 1 -20 16 0 11 14 14 15 9 3 -3
-10 -1 -20 5 -24 7 -3 11 3 12 17 0 21 1 21 8 4 7 -18 8 -18 14 -2 4 10 7 20
7 22 0 2 -29 4 -64 4 -59 0 -64 -1 -59 -20z"/>
<path d="M1826 173 c-4 -9 -1 -21 5 -27 8 -7 10 -7 6 -1 -3 6 -2 17 4 25 7 12
9 11 10 -5 l0 -20 9 20 c7 16 9 17 9 3 1 -9 5 -20 11 -23 5 -3 7 0 4 8 -3 8
-1 18 5 22 6 3 11 -2 12 -12 0 -16 1 -16 9 2 l9 20 0 -20 c1 -17 3 -17 11 -5
16 24 13 26 -44 28 -42 1 -56 -3 -60 -15z"/>
<path d="M1945 173 c-3 -9 -1 -21 5 -27 7 -7 10 -2 11 15 0 21 1 22 8 5 7 -18
8 -18 14 -2 9 23 10 22 -12 23 -11 1 -22 -6 -26 -14z"/>
<path d="M1996 173 c-4 -9 -1 -21 5 -27 8 -7 10 -7 6 -1 -3 6 -2 17 4 25 7 12
9 11 9 -5 0 -17 2 -17 10 -5 14 22 12 30 -9 30 -10 0 -22 -8 -25 -17z"/>
<path d="M2046 173 c-4 -9 -1 -21 5 -27 8 -7 10 -7 6 -1 -3 6 -2 17 4 25 7 12
9 9 10 -10 l1 -25 8 25 c7 21 8 22 9 5 1 -17 3 -17 11 -5 15 23 13 26 -19 28
-19 1 -31 -3 -35 -15z"/>
<path d="M2117 176 c-3 -7 -1 -19 4 -27 6 -10 9 -8 10 11 0 22 1 23 8 6 7 -18
8 -18 14 -2 9 23 10 22 -12 23 -11 1 -22 -4 -24 -11z"/>
<path d="M2166 173 c-4 -9 -1 -21 5 -27 8 -7 10 -7 6 -1 -3 6 -2 17 4 25 7 12
9 11 9 -5 0 -17 2 -17 10 -5 14 22 12 30 -9 30 -10 0 -22 -8 -25 -17z"/>
<path d="M2216 173 c-4 -9 -1 -21 5 -27 8 -7 10 -7 6 -1 -3 6 -2 17 4 25 7 12
9 11 9 -5 0 -15 3 -17 9 -7 7 11 9 11 14 -2 8 -20 33 -11 40 15 4 17 0 19 -38
19 -31 0 -45 -5 -49 -17z m67 -8 c-3 -9 -8 -14 -10 -11 -3 3 -2 9 2 15 9 16
15 13 8 -4z"/>
</g>
</svg>
