<?xml version="1.0" standalone="no"?>
<!DOCTYPE svg PUBLIC "-//W3C//DTD SVG 20010904//EN"
 "http://www.w3.org/TR/2001/REC-SVG-20010904/DTD/svg10.dtd">
<svg version="1.0" xmlns="http://www.w3.org/2000/svg"
 width="400.000000pt" height="260.000000pt" viewBox="0 0 400.000000 260.000000"
 preserveAspectRatio="xMidYMid meet">

<g transform="translate(0.000000,260.000000) scale(0.100000,-0.100000)"
fill="#000000" stroke="none">
<path d="M733 2460 c-54 -22 -51 36 -55 -1206 -3 -1140 -3 -1152 17 -1174 51
-57 -29 -54 1312 -47 1358 7 1267 2 1315 69 l23 33 0 995 c-1 1098 3 1032 -62
1076 -26 18 -56 19 -387 24 l-360 5 -1 30 c-1 17 -2 56 -3 88 -2 50 -6 63 -31
88 l-29 29 -859 -1 c-472 0 -868 -4 -880 -9z m2505 -339 c10 -6 12 -50 6 -214
-7 -203 -7 -207 -29 -207 -11 0 -25 -4 -31 -10 -10 -10 -103 -42 -192 -66
-115 -31 -338 -42 -462 -24 -206 30 -300 60 -385 125 -59 44 -66 52 -58 70 5
14 2 16 -15 10 -30 -9 -28 10 3 51 35 46 31 50 -11 12 -49 -44 -107 -132 -127
-192 -36 -106 -14 -266 36 -266 13 0 32 -7 43 -15 10 -8 30 -15 44 -16 20 -1
18 -3 -15 -14 -22 -7 -66 -24 -99 -39 -32 -14 -62 -26 -67 -26 -15 0 -11 804
3 818 14 14 1334 17 1356 3z m-1921 -257 c-3 -3 -12 -4 -19 -1 -8 3 -5 6 6 6
11 1 17 -2 13 -5z m280 -19 c95 0 173 -4 173 -9 0 -12 -380 -1 -410 12 -21 9
-17 10 20 4 25 -3 123 -7 217 -7z m1641 -1697 c-7 -4 -312 -8 -678 -8 -505 0
-669 3 -678 12 -9 9 -12 95 -12 327 0 174 3 333 6 354 6 32 8 35 19 20 11 -14
29 -16 166 -10 85 4 165 10 178 13 20 6 23 4 18 -9 -4 -12 -2 -14 11 -10 9 3
22 9 27 14 17 12 136 50 205 65 36 8 128 19 205 24 158 12 299 36 315 55 6 7
13 36 17 64 l6 52 51 -6 c41 -5 61 -1 101 18 l50 24 3 -496 c2 -389 0 -496
-10 -503z m-1600 705 c-16 -2 -40 -2 -55 0 -16 2 -3 4 27 4 30 0 43 -2 28 -4z
m71 -189 c102 -11 69 -19 -61 -16 -76 2 -171 -2 -247 -12 -134 -18 -167 -16
-74 3 125 27 273 36 382 25z m-536 -311 c-13 -2 -33 -2 -45 0 -13 2 -3 4 22 4
25 0 35 -2 23 -4z m-93 -13 c-8 -5 -26 -9 -40 -9 l-25 1 25 8 c14 4 32 8 40 9
13 1 13 0 0 -9z m-97 -17 c-7 -2 -19 -2 -25 0 -7 3 -2 5 12 5 14 0 19 -2 13
-5z"/>
</g>
</svg>
