<?xml version="1.0" standalone="no"?>
<!DOCTYPE svg PUBLIC "-//W3C//DTD SVG 20010904//EN"
 "http://www.w3.org/TR/2001/REC-SVG-20010904/DTD/svg10.dtd">
<svg version="1.0" xmlns="http://www.w3.org/2000/svg"
 width="400.000000pt" height="260.000000pt" viewBox="0 0 400.000000 260.000000"
 preserveAspectRatio="xMidYMid meet">

<g transform="translate(0.000000,260.000000) scale(0.100000,-0.100000)"
fill="#000000" stroke="none">
<path d="M2164 2482 c-69 -46 -17 -218 60 -198 32 8 48 38 48 87 -1 78 -63
142 -108 111z"/>
<path d="M747 2463 c-4 -3 -7 -29 -7 -57 0 -37 3 -47 10 -36 5 8 10 11 10 7 0
-4 9 -3 20 3 15 8 20 21 20 50 0 35 -3 40 -23 40 -13 0 -27 -3 -30 -7z"/>
<path d="M966 2448 c-37 -59 -31 -120 16 -173 35 -41 68 -45 98 -13 55 59 4
208 -72 208 -18 0 -33 -8 -42 -22z"/>
<path d="M916 2361 c-9 -14 11 -86 28 -100 8 -7 16 -8 18 -4 7 13 -39 116 -46
104z"/>
<path d="M753 2353 c-7 -2 -13 -8 -13 -12 0 -11 49 -1 56 10 5 9 -22 11 -43 2z"/>
<path d="M2129 2312 c11 -21 59 -59 65 -51 1 2 -15 20 -37 39 -31 27 -37 30
-28 12z"/>
<path d="M1149 2266 c-2 -3 -16 -6 -29 -8 -14 -2 -36 -10 -49 -17 -15 -8 -38
-11 -63 -7 -53 9 -47 -14 8 -32 37 -12 40 -12 58 10 l19 23 -5 -27 c-3 -16 -1
-28 3 -28 5 0 9 9 9 20 0 12 12 26 30 35 17 9 30 20 30 25 0 11 -4 13 -11 6z"/>
<path d="M1497 2259 c-9 -5 -25 -24 -35 -42 -16 -30 -17 -104 -22 -1037 -3
-553 -8 -987 -12 -965 -4 22 -8 108 -8 191 0 83 -3 154 -6 157 -4 4 -15 -2
-24 -13 -16 -19 -17 -17 -24 57 -3 42 -6 381 -6 754 l0 679 33 15 c31 15 31
15 5 11 -19 -2 -28 1 -28 10 0 8 9 14 19 14 21 0 31 19 31 61 0 24 -4 29 -24
29 -14 0 -28 -6 -33 -12 -4 -7 -11 -155 -14 -328 -8 -371 -17 -516 -33 -500
-22 22 -26 7 -26 -95 0 -94 -9 -129 -23 -92 -4 7 -6 6 -6 -4 -1 -19 25 -33 41
-23 12 8 2 -110 -22 -246 -5 -30 -12 -71 -15 -90 -8 -50 -45 -228 -56 -271
-14 -54 -41 -209 -44 -254 -2 -22 -4 -40 -5 -40 -4 0 -11 -49 -13 -87 -1 -21
-5 -38 -9 -38 -5 0 -8 -5 -8 -11 0 -5 4 -7 10 -4 5 3 7 0 4 -8 -6 -18 29 -24
186 -33 l115 -7 -27 22 c-16 13 -28 29 -28 36 0 8 12 15 28 17 20 3 37 -5 65
-32 l38 -35 227 -5 c128 -3 -21 -6 -340 -5 -311 0 -561 -3 -555 -7 15 -9 1191
-11 1200 -2 4 4 -8 14 -26 23 -21 10 -41 33 -57 66 -24 48 -25 60 -28 261 l-4
211 -49 -50 c-27 -27 -49 -58 -49 -69 0 -11 -4 -16 -10 -13 -5 3 -10 -1 -10
-10 0 -9 -4 -13 -10 -10 -5 3 -10 0 -10 -8 0 -9 -24 -28 -52 -45 -29 -16 -65
-41 -81 -56 -15 -14 -31 -26 -35 -27 -21 -5 -31 -12 -26 -20 3 -5 -4 -9 -16
-9 -20 0 -70 -44 -70 -62 0 -5 -5 -6 -11 -2 -14 9 -4 75 20 129 27 58 79 104
252 218 l154 102 3 693 c1 459 -1 692 -8 692 -5 0 -10 13 -10 29 0 42 -17 54
-110 80 -87 24 -110 19 -110 -20 0 -11 -7 -19 -17 -19 -15 0 -16 2 -3 10 13 8
12 10 -5 11 -11 1 -28 1 -37 0 -11 -2 -18 5 -18 14 0 11 -6 15 -19 10 -15 -4
-18 0 -18 20 0 14 4 28 10 32 6 4 7 1 2 -8 -7 -11 -6 -12 6 -3 8 6 23 11 34
12 21 0 178 -38 258 -62 43 -14 47 -14 47 2 0 14 -38 28 -192 70 -201 55 -222
58 -251 41z m-11 -137 c0 -4 3 -14 7 -22 3 -8 8 -44 11 -80 12 -125 78 -229
276 -433 63 -65 116 -124 118 -130 2 -7 -1 -6 -6 1 -5 8 -25 15 -43 15 -19 1
-39 9 -46 17 -8 10 -12 11 -13 3 0 -7 -7 -10 -15 -7 -12 5 -13 9 -4 20 10 12
9 13 -5 8 -12 -4 -16 0 -16 15 0 12 -4 21 -10 21 -5 0 -7 -6 -4 -13 2 -7 -4
-13 -16 -14 -11 -1 -20 2 -20 6 0 14 -49 31 -56 20 -3 -6 -13 -9 -22 -7 -17 3
-76 -41 -67 -50 2 -3 0 -13 -5 -23 -6 -10 -6 -20 -1 -23 4 -3 6 -17 3 -32 -4
-24 7 -76 30 -133 13 -35 11 -250 -5 -331 -6 -34 -28 -80 -39 -80 -4 0 -7 -3
-6 -7 2 -10 -22 -64 -38 -83 -7 -8 -14 -24 -17 -35 -2 -11 -5 299 -6 689 0
390 2 706 7 702 4 -4 7 -11 8 -14z m359 -83 c16 -7 13 -8 -13 -5 -19 3 -36 7
-40 10 -9 9 31 6 53 -5z m85 -27 c0 -12 -3 -13 -12 -4 -7 7 -21 12 -32 13 -18
1 -17 2 4 8 30 9 40 5 40 -17z m-604 -718 c-3 -9 -6 -30 -7 -47 0 -30 -1 -31
-11 -10 -12 25 -3 73 13 73 6 0 8 -7 5 -16z"/>
<path d="M2614 2255 c-50 -34 -49 -10 -49 -1090 0 -976 1 -1011 19 -1049 37
-74 47 -76 343 -76 l261 0 30 25 c17 14 34 42 41 67 9 32 11 280 9 963 l-3
920 -23 42 c-12 24 -34 50 -48 60 -30 19 -496 153 -534 153 -14 0 -35 -7 -46
-15z m319 -90 c127 -36 241 -72 254 -80 12 -8 31 -27 40 -42 17 -25 18 -88 21
-943 2 -631 0 -926 -8 -952 -6 -20 -22 -46 -37 -58 -25 -20 -36 -20 -284 -18
l-257 3 -26 24 c-15 14 -31 41 -37 60 -7 24 -9 367 -7 1026 3 929 4 993 21
1018 26 40 56 36 320 -38z"/>
<path d="M2837 2154 c-16 -16 -6 -64 16 -78 23 -15 132 -46 161 -46 21 0 30
23 22 55 -5 19 -18 28 -69 43 -86 27 -122 34 -130 26z"/>
<path d="M2662 1875 c-1 -22 3 -71 7 -110 7 -59 5 -78 -13 -125 -18 -48 -20
-76 -19 -220 1 -222 17 -270 60 -188 20 39 23 56 21 168 -2 230 55 328 194
331 l43 1 -40 19 c-59 28 -133 25 -180 -7 -44 -30 -54 -22 -56 41 0 22 -4 60
-8 85 l-8 45 -1 -40z"/>
<path d="M3191 1212 c-17 -78 -44 -118 -96 -146 -22 -11 -43 -25 -46 -30 -4
-5 -11 -6 -16 -3 -5 3 -10 -1 -10 -9 0 -8 27 -39 59 -68 53 -48 59 -58 69
-110 9 -53 3 -147 -16 -213 -3 -10 2 -2 11 17 34 72 68 368 62 535 l-3 90 -14
-63z"/>
<path d="M1166 2238 c-35 -58 -24 -141 25 -182 l27 -23 -32 1 c-17 1 -37 5
-43 9 -8 5 -11 3 -8 -5 3 -7 24 -24 46 -37 34 -19 45 -21 63 -12 34 19 63 116
52 176 -15 79 -97 125 -130 73z"/>
<path d="M2298 2223 c-35 -41 -29 -115 14 -160 61 -65 130 17 93 113 -24 62
-74 85 -107 47z"/>
<path d="M1110 2152 c0 -42 17 -86 40 -100 17 -10 20 -10 20 2 0 8 -4 17 -9
20 -4 3 -14 26 -21 51 -15 54 -30 68 -30 27z"/>
<path d="M2160 2160 c0 -5 5 -10 10 -10 6 0 10 5 10 10 0 6 -4 10 -10 10 -5 0
-10 -4 -10 -10z"/>
<path d="M965 2137 c-22 -34 -29 -81 -16 -119 13 -39 56 -84 86 -91 11 -2 -3
-3 -32 -2 -28 1 -60 7 -70 15 -10 7 -3 -1 15 -19 21 -20 43 -31 61 -31 29 0
81 33 81 52 0 6 -7 5 -17 -3 -12 -9 -11 -5 3 11 29 34 37 73 24 119 -22 81
-100 121 -135 68z"/>
<path d="M2279 2063 c13 -26 47 -46 64 -39 8 3 7 5 -2 5 -8 1 -28 13 -44 29
-26 24 -28 24 -18 5z"/>
<path d="M917 2052 c-9 -13 11 -79 30 -97 24 -25 24 -13 -1 49 -13 32 -26 54
-29 48z"/>
<path d="M1167 1979 c-33 -19 -15 -99 23 -99 26 0 42 32 31 62 -13 35 -33 48
-54 37z"/>
<path d="M1397 1783 c-4 -3 -7 -11 -7 -17 0 -6 5 -5 12 2 6 6 9 14 7 17 -3 3
-9 2 -12 -2z"/>
<path d="M782 1653 c-1 -39 -5 -80 -8 -90 -5 -13 -4 -15 5 -7 8 7 11 38 8 90
l-3 79 -2 -72z"/>
<path d="M1397 1533 c-4 -3 -7 -11 -7 -17 0 -6 5 -5 12 2 6 6 9 14 7 17 -3 3
-9 2 -12 -2z"/>
<path d="M1400 1348 c-3 -31 -1 -53 3 -49 5 5 7 30 5 57 l-3 49 -5 -57z"/>
<path d="M1380 850 c0 -5 5 -10 10 -10 6 0 10 5 10 10 0 6 -4 10 -10 10 -5 0
-10 -4 -10 -10z"/>
<path d="M741 444 c-1 -308 3 -331 52 -328 17 1 38 -3 46 -9 12 -10 13 -8 6
13 -4 14 -11 122 -15 240 l-6 215 -3 -195 c-4 -259 -19 -208 -20 70 -1 118 -5
221 -10 228 -6 10 -11 9 -22 -4 -13 -16 -15 -15 -20 12 -4 16 -7 -93 -8 -242z
m16 134 c-3 -8 -6 -5 -6 6 -1 11 2 17 5 13 3 -3 4 -12 1 -19z"/>
<path d="M821 614 c0 -11 3 -14 6 -6 3 7 2 16 -1 19 -3 4 -6 -2 -5 -13z"/>
<path d="M2228 23 c90 -2 234 -2 320 0 86 1 13 3 -163 3 -176 0 -247 -2 -157
-3z"/>
<path d="M2783 23 c37 -2 96 -2 130 0 34 2 4 3 -68 3 -71 0 -99 -1 -62 -3z"/>
</g>
</svg>
