<?xml version="1.0" standalone="no"?>
<!DOCTYPE svg PUBLIC "-//W3C//DTD SVG 20010904//EN"
 "http://www.w3.org/TR/2001/REC-SVG-20010904/DTD/svg10.dtd">
<svg version="1.0" xmlns="http://www.w3.org/2000/svg"
 width="400.000000pt" height="260.000000pt" viewBox="0 0 400.000000 260.000000"
 preserveAspectRatio="xMidYMid meet">

<g transform="translate(0.000000,260.000000) scale(0.100000,-0.100000)"
fill="#000000" stroke="none">
<path d="M3710 1960 l-45 -7 42 -1 42 -2 4 -72 3 -73 2 83 c1 45 1 81 0 80 -2
0 -23 -4 -48 -8z"/>
<path d="M1903 1953 c32 -2 81 -2 110 0 29 2 3 3 -58 3 -60 0 -84 -1 -52 -3z"/>
<path d="M2160 1914 c19 -9 46 -21 60 -26 15 -6 20 -12 13 -15 -7 -3 -13 -13
-13 -24 0 -22 -12 -24 -43 -8 l-22 12 22 -24 c11 -13 35 -39 52 -57 17 -19 51
-65 77 -103 25 -38 50 -69 56 -69 6 0 9 -2 7 -5 -7 -7 -283 59 -439 104 -74
22 -198 63 -275 91 -76 27 -140 50 -142 50 -2 0 -3 -118 -3 -262 0 -154 4
-257 9 -249 11 17 65 9 130 -20 24 -11 68 -19 100 -20 78 -1 105 -11 109 -37
3 -20 9 -22 61 -22 95 0 182 -12 178 -24 -2 -6 -31 -17 -65 -25 -93 -22 -76
-34 36 -26 116 8 202 -7 313 -56 41 -17 90 -38 109 -46 33 -13 33 -14 5 -9
-16 3 -41 8 -55 11 -14 3 13 -10 59 -30 94 -39 122 -45 97 -20 -8 8 -25 20
-38 25 -16 7 23 9 132 6 176 -4 259 -24 410 -95 47 -22 130 -51 185 -66 55
-14 120 -33 144 -41 25 -8 90 -21 145 -29 56 -8 115 -19 133 -24 17 -5 34 -7
37 -3 3 3 6 -11 6 -31 l0 -36 -82 -4 -83 -3 88 -2 87 -2 -2 318 c-1 174 -3
293 -5 265 l-4 -53 -35 0 c-22 0 -34 5 -33 13 5 41 -2 43 -101 20 l-25 -6 20
23 20 23 -20 -7 c-72 -27 -146 -38 -218 -33 -105 7 -208 57 -430 208 -92 63
-219 149 -280 191 -144 98 -328 200 -347 193 -8 -4 -11 -3 -7 1 4 4 -21 20
-56 34 -69 30 -133 49 -77 24z m-385 -213 c147 -36 370 -113 448 -154 31 -16
56 -32 54 -34 -2 -2 -93 28 -203 67 -109 38 -255 87 -324 109 -150 47 -139 52
25 12z"/>
<path d="M2890 1819 c19 -17 70 -51 114 -77 43 -26 88 -57 100 -70 11 -13 31
-34 44 -48 13 -13 20 -24 17 -24 -4 0 12 -18 34 -39 58 -55 342 -215 403 -226
34 -6 40 -4 97 52 38 36 61 66 60 78 -1 17 -2 18 -6 2 -4 -16 -10 -14 -51 16
-26 18 -60 38 -77 44 -41 16 -103 23 -107 13 -2 -4 -59 26 -128 66 -195 116
-473 245 -523 244 -7 -1 4 -14 23 -31z"/>
<path d="M1026 1132 c-334 -1 -483 -6 -493 -13 -8 -7 -13 -33 -13 -70 l0 -59
-168 0 c-151 0 -171 -2 -185 -18 -15 -17 -17 -62 -17 -448 0 -236 4 -435 9
-442 7 -11 136 -13 730 -10 662 3 722 2 718 -13 -4 -15 21 -17 237 -21 133 -2
264 -2 291 1 44 5 50 9 52 31 2 23 2 23 -6 5 -9 -19 -10 -19 -10 3 -1 20 -6
22 -62 22 l-60 0 2 506 c1 381 -1 508 -10 517 -13 13 -140 14 -1015 9z m178
-37 c8 -23 151 -21 164 2 9 15 35 16 277 10 149 -3 271 -10 274 -15 3 -5 25
-19 49 -31 30 -15 42 -18 44 -9 0 7 4 -16 8 -52 10 -85 12 -275 3 -283 -3 -4
-22 5 -40 19 -21 16 -55 29 -86 33 -30 5 -75 21 -107 41 -74 44 -270 140 -286
140 -28 0 -13 -30 25 -50 41 -20 72 -47 108 -93 22 -29 145 -113 211 -145 78
-38 95 -37 137 2 21 20 39 36 41 36 6 0 2 -71 -5 -105 -7 -35 -41 -48 -41 -16
0 17 -5 19 -35 14 -22 -4 -35 -2 -35 5 0 9 -7 9 -27 1 -16 -6 -59 -11 -98 -12
-77 0 -133 21 -235 86 l-55 36 -6 -27 c-4 -15 -7 41 -8 125 -1 123 -4 154 -17
167 -14 14 -70 16 -465 16 l-449 0 0 54 c0 52 1 55 28 59 15 2 160 5 323 6
256 1 298 -1 303 -14z m-470 -150 c8 -22 144 -21 160 1 10 14 40 15 255 8 133
-4 237 -11 229 -15 -9 -6 -4 -11 16 -18 15 -6 31 -9 35 -6 15 9 29 -273 14
-288 -3 -4 -22 3 -41 15 -20 12 -47 21 -60 20 -14 -1 -67 22 -122 53 -99 56
-229 115 -251 115 -7 0 14 -18 47 -41 32 -22 79 -63 104 -89 43 -47 216 -150
250 -150 8 0 26 12 42 27 15 14 31 24 34 20 3 -3 3 -29 -1 -56 -6 -42 -10 -51
-27 -51 -13 0 -18 5 -15 14 5 12 -2 13 -30 9 -28 -5 -34 -3 -28 7 6 10 4 11
-11 5 -10 -5 -47 -11 -82 -13 -83 -5 -142 23 -347 163 -142 98 -313 196 -339
195 -6 -1 2 -8 17 -16 27 -15 28 -40 1 -30 -22 8 -17 0 31 -62 25 -31 41 -58
35 -60 -29 -10 -436 110 -462 136 -5 5 -6 32 -2 60 6 45 9 51 33 55 14 2 135
5 267 6 207 1 243 -1 248 -14z m-359 -200 c96 -28 248 -85 243 -91 -2 -2 -83
23 -179 56 -183 62 -212 77 -64 35z m-45 -224 c27 -4 44 -11 42 -19 -1 -8 16
-12 55 -13 32 -1 69 -4 83 -8 21 -7 17 -9 -32 -20 -32 -7 -58 -14 -58 -15 0
-2 34 -1 75 2 64 4 86 1 150 -23 41 -15 75 -31 75 -36 0 -4 7 -5 17 -2 11 4
14 3 9 -5 -4 -7 -3 -12 3 -12 5 0 18 -3 28 -6 15 -5 16 -4 3 6 -12 9 9 10 90
7 94 -3 113 -7 185 -39 82 -37 240 -81 333 -93 48 -6 52 -9 52 -33 0 -15 3
-37 6 -49 l6 -23 -589 0 -589 0 -44 45 -45 46 -4 130 c-1 71 0 145 3 164 l7
34 47 -16 c26 -8 67 -18 92 -22z m1173 -111 c7 0 40 -13 75 -30 102 -48 308
-102 430 -112 6 -1 12 -8 12 -17 0 -9 3 -33 6 -53 l7 -38 -277 0 -276 0 1 143
c1 78 3 134 6 125 2 -10 10 -18 16 -18z"/>
<path d="M798 1063 c7 -3 16 -2 19 1 4 3 -2 6 -13 5 -11 0 -14 -3 -6 -6z"/>
<path d="M915 1010 c-47 -6 -46 -7 25 -8 50 0 68 2 55 8 -11 5 -22 8 -25 8 -3
-1 -27 -4 -55 -8z"/>
<path d="M490 892 c8 -5 26 -13 40 -16 17 -5 20 -4 10 2 -8 5 -26 13 -40 16
-17 5 -20 4 -10 -2z"/>
<path d="M2323 1073 c9 -2 23 -2 30 0 6 3 -1 5 -18 5 -16 0 -22 -2 -12 -5z"/>
<path d="M3408 33 c84 -2 219 -2 300 0 81 1 12 3 -153 3 -165 0 -231 -2 -147
-3z"/>
</g>
</svg>
